# xmcd
#
# Track frame offsets: 
#        150
#        17373
#        32283
#        54609
#        67512
#        84186
#        99618
#        117894
#        132192
#        143421
#        162336
#        175185
#        198717
#        216732
#        229347
#        249945
#
# Disc length: 3485 seconds
#
# Revision: 0
# Processed by: cddbd v1.5.2PL0 Copyright (c) Steve Scherf et al.
# Submitted via: ExactAudioCopy v1.0b1
#
DISCID=cc0d9b10
DTITLE=Chris Ledoux - Classic Chris Ledoux
DYEAR=2008
DGENRE=Country
TTITLE0=Life Is A Highway
TTITLE1=Horsepower
TTITLE2=Tougher Than The Rest
TTITLE3=Cadillac Ranch
TTITLE4=Five Dollar Fine
TTITLE5=For Your Love
TTITLE6=Honky Tonk World
TTITLE7=Look At You Girl
TTITLE8=Under This Old Hat
TTITLE9=This Cowboy's Hat
TTITLE10=He Rides Wild Horses
TTITLE11=Stampede
TTITLE12=Silence On The Line
TTITLE13=Workin' Man's Dollar
TTITLE14=Bang A Drum (With Jon Bon Jovi
TTITLE15=Watcha Gonna Do With A Cowboy
EXTD=
EXTT0=
EXTT1=
EXTT2=
EXTT3=
EXTT4=
EXTT5=
EXTT6=
EXTT7=
EXTT8=
EXTT9=
EXTT10=
EXTT11=
EXTT12=
EXTT13=
EXTT14=
EXTT15=
PLAYORDER=
